# xmcd CD database file
#
# Track frame offsets:
#	150
#	10764
#	22951
#	43770
#	53563
#	71518
#	86673
#	102398
#	124281
#	138548
#	153962
#	166425
#	179489
#	194906
#	212943
#	229808
#	243239
#	260972
#	279140
#	295562
#	313801
#	330927
#
# Disc length: 4678 seconds
#
# Revision: 1
# Processed by: cddbd v1.5.1PL0 Copyright (c) Steve Scherf et al.
# Submitted via: CDex 1.51
#
DISCID=42124416
DTITLE=CA04 - CA04
DYEAR=1900
DGENRE=LineDance
TTITLE0=Rama Lama Ding Dong [ Rama Lama Ding Dong ] The Replays
TTITLE1=A DEVIL IN DISGUISE [ A DEVIL IN DISGUISE ] TRISHA YEARWOOD
TTITLE2=Southern Delight [ Levantando los manos ] El Simbolo
TTITLE3=Badda-Boom Badda-Bang [ FREDDY SAID ] BARRY MANILOW
TTITLE4=CHILLI CHA CHA [ CHILLI CHA CHA ] JESSICA JAY
TTITLE5=CLOSER [ CLOSER ] SUSAN ASHTON
TTITLE6=WHISKEY IN THE JAR [ WHISKEY IN THE JAR ] SHAM ROCK
TTITLE7=Coastin' [ Lord Of The Dance ] Ronan Hardiman
TTITLE8=Ladies Night [ Ladies Night ] Atomic Kitten
TTITLE9=1000 Years [ A Love Worth Waitin' For ] Shakin Stevens
TTITLE10=Dizzy [ Dizzy ] Scooter Lee
TTITLE11=BOBBIE SUE [ BOBBIE SUE ] OAK RIDGE BOYS
TTITLE12=Everyday [ Everyday ] The Deans
TTITLE13=Wave On Wave [ Wave On Wave ] Pat Green
TTITLE14=Just A Memory [ Memories Are Made Of This ] The Dean Brothers
TTITLE15=Shanias Moment [ Perfect Love ] Trisha Yearwood
TTITLE16=Shanias Moment [ From This Moment On ] Shania Twain
TTITLE17=Swamp Thang [ Swamp Thing ] The Grid
TTITLE18=CCS [ IF I NEVER STOP LOVING YOU ] DAVID KERSH
TTITLE19=CCS [ LOVIN' YOU AGAINST MY WILL ] GARY ALLAN
TTITLE20=Wishful Thinking [ Lovin' All Night ] Rodney Crowell
TTITLE21=Cajub Slap [ DOWN AT THE TWIST AND SHOUT ] CARLENE CARTER
EXTD=
EXTT0=
EXTT1=
EXTT2=
EXTT3=
EXTT4=
EXTT5=
EXTT6=
EXTT7=
EXTT8=
EXTT9=
EXTT10=
EXTT11=
EXTT12=
EXTT13=
EXTT14=
EXTT15=
EXTT16=
EXTT17=
EXTT18=
EXTT19=
EXTT20=
EXTT21=
PLAYORDER=
